<svg version="1.1" id="Layer_1" xmlns="http://www.w3.org/2000/svg" xmlns:xlink="http://www.w3.org/1999/xlink" x="0px" y="0px"
	 width="100%" viewBox="0 0 288 287" enable-background="new 0 0 288 287" xml:space="preserve">
<path fill="#E17A41" opacity="1.000000" stroke="none" 
	d="
M289.000000,37.000000 
	C289.000000,37.750000 289.000000,38.500000 288.791504,39.981953 
	C288.388245,42.683529 288.024323,44.653065 288.023315,46.622784 
	C287.989716,112.653404 287.981354,178.684036 288.029236,244.714645 
	C288.030731,246.809998 288.662201,248.904892 289.000000,251.000000 
	C289.000000,251.444443 289.000000,251.888901 288.679565,252.846237 
	C283.550842,271.600586 272.337219,283.282288 253.627060,287.309784 
	C253.379959,287.362946 253.207367,287.762268 253.000000,288.000000 
	C191.645767,288.000000 130.291550,288.000000 68.593872,287.674988 
	C70.731926,283.507629 69.453346,281.966309 65.124550,281.989441 
	C53.966866,282.049103 42.807377,281.929810 31.652132,282.105835 
	C30.081957,282.130585 28.531561,283.408905 26.615540,284.068481 
	C14.436502,278.675110 6.799500,269.660767 2.868044,257.370026 
	C2.387560,255.867859 1.629451,254.454514 0.999999,253.000000 
	C1.000000,252.250000 1.000000,251.500000 1.222160,250.024872 
	C1.640763,247.663803 2.008574,246.027878 2.008955,244.391876 
	C2.024364,178.192230 2.015004,111.992584 1.951480,45.792988 
	C1.949627,43.861691 1.331032,41.930984 1.000000,40.000000 
	C1.000000,38.933331 1.000000,37.866661 1.322411,36.223503 
	C6.449864,17.402847 17.661608,5.718329 36.374420,1.690708 
	C36.621075,1.637619 36.793125,1.237919 37.000000,1.000000 
	C37.000000,1.000000 37.500000,1.000000 38.103443,1.215287 
	C40.510422,1.618867 42.313896,1.971051 44.117508,1.971784 
	C110.980225,1.998962 177.842957,2.002655 244.705658,1.951009 
	C246.804016,1.949388 248.901901,1.330906 251.000000,1.000000 
	C251.444443,1.000000 251.888901,1.000000 252.864166,1.320324 
	C266.169098,4.147828 276.268188,10.731944 282.792114,22.025711 
	C285.471771,26.664564 286.966370,31.987976 289.000000,37.000000 
M135.163742,228.289032 
	C135.163742,228.289032 135.469849,228.320374 135.898651,228.903931 
	C147.955475,235.145187 159.602066,228.855911 160.052628,215.051514 
	C160.008423,185.367233 159.964203,155.682938 160.065002,125.500328 
	C160.018616,125.333664 159.972229,125.167007 160.083633,124.082657 
	C160.043900,119.726860 160.004166,115.371063 160.183929,110.226265 
	C160.110107,109.145859 160.036285,108.065460 160.126678,106.061966 
	C160.040634,89.386742 159.954575,72.711517 160.027344,55.215767 
	C159.405487,46.420269 155.304825,41.715794 146.158478,40.036385 
	C144.780212,40.097832 143.401962,40.159279 141.303207,40.162468 
	C138.916534,41.450684 136.529861,42.738899 133.598328,44.299049 
	C133.027313,45.119244 132.456299,45.939434 131.279114,47.203106 
	C130.514648,49.366016 129.119781,51.520493 129.090744,53.693233 
	C128.933350,65.462486 129.113724,77.236259 129.024033,89.933617 
	C129.059616,98.622116 129.095184,107.310616 128.906754,116.912285 
	C128.993546,123.943886 129.080322,130.975479 129.004745,138.931183 
	C129.052277,153.285568 129.099792,167.639954 128.939529,182.910065 
	C129.018875,188.612640 129.098236,194.315201 129.023132,200.936539 
	C129.073593,205.621567 129.124054,210.306580 128.980438,215.804810 
	C128.929077,220.889664 130.559448,225.149933 135.163742,228.289032 
M205.338791,63.416553 
	C204.920013,64.283524 204.145676,65.146935 204.136963,66.018013 
	C204.040558,75.648819 204.022278,85.281303 204.137634,94.911484 
	C204.146027,95.612808 205.357193,96.299728 206.717346,96.739006 
	C207.459839,95.376030 208.814468,94.026825 208.845505,92.647835 
	C209.047195,83.685661 209.049072,74.714951 208.838608,65.753555 
	C208.816635,64.818138 206.980133,63.925331 205.338791,63.416553 
M204.029968,152.660202 
	C204.284241,155.368958 205.483109,156.219543 207.234818,153.798218 
	C208.233398,152.417969 208.840942,150.449890 208.877579,148.730621 
	C209.050613,140.609116 209.113464,132.477142 208.838440,124.361679 
	C208.788223,122.879807 206.986267,121.457298 205.344238,120.411331 
	C204.898041,122.279320 204.096283,124.141655 204.066467,126.016266 
	C203.928757,134.675003 204.005814,143.337143 204.029968,152.660202 
M241.332733,109.499687 
	C241.330658,91.519928 241.489349,73.538116 241.260040,55.561256 
	C241.141785,46.291553 234.651779,40.047188 225.899170,39.957958 
	C217.200607,39.869282 210.198212,46.223202 210.149307,55.266964 
	C209.965714,89.228577 210.052826,123.191917 210.134827,157.154388 
	C210.147095,162.240234 212.214539,166.591980 216.492477,169.554901 
	C221.539490,173.050522 227.016800,173.608337 232.565948,170.928574 
	C238.124725,168.244156 241.183029,163.747726 241.208923,157.445953 
	C241.273224,141.797256 241.304230,126.148415 241.332733,109.499687 
M79.042229,78.500000 
	C79.042229,76.502823 79.042564,74.505653 79.042145,72.508476 
	C79.040993,67.016235 79.108810,61.522903 79.022491,56.032001 
	C78.880653,47.009598 72.514725,40.282318 63.954716,39.984234 
	C55.175022,39.678509 48.032909,45.645649 47.866234,54.764381 
	C47.458843,77.052681 47.471222,99.353508 47.675846,121.645981 
	C47.770752,131.985596 54.394798,138.401505 63.698532,138.204163 
	C72.944115,138.008057 79.013268,131.216400 79.036179,120.941460 
	C79.066978,107.127701 79.042801,93.313828 79.042229,78.500000 
M122.000732,193.374115 
	C122.244759,196.754684 121.211250,200.718246 125.847267,202.357285 
	C128.093384,195.969360 127.369858,170.668060 124.739944,167.971237 
	C123.810753,176.273712 122.905609,184.361267 122.000732,193.374115 
M122.355095,73.167145 
	C122.355095,78.816460 122.355095,84.465782 122.355095,90.652512 
	C127.468719,87.680244 128.918274,61.376129 124.861198,56.601456 
	C124.090439,62.067257 123.367203,67.196060 122.355095,73.167145 
M124.000473,119.617172 
	C124.206703,128.448624 123.542099,137.335434 124.393242,146.125885 
	C125.015984,146.096802 125.638725,146.067719 126.261467,146.038635 
	C126.261467,134.659607 126.261467,123.280563 126.261467,111.901527 
	C125.693657,111.858994 125.125854,111.816460 124.558044,111.773926 
	C124.372437,114.071564 124.186821,116.369202 124.000473,119.617172 
M45.994549,55.665173 
	C45.443462,52.939686 47.448734,49.257328 43.065174,47.626495 
	C43.553978,58.149677 44.026192,68.315765 44.498405,78.481850 
	C44.997704,78.466713 45.496998,78.451584 45.996296,78.436447 
	C45.996296,71.164146 45.996296,63.891842 45.994549,55.665173 
z"/>
<path fill="#FEFDFB" opacity="1.000000" stroke="none" 
	d="
M289.000000,36.531342 
	C286.966370,31.987976 285.471771,26.664564 282.792114,22.025711 
	C276.268188,10.731944 266.169098,4.147828 253.197495,1.320324 
	C264.926605,1.000000 276.853210,1.000000 289.000000,1.000000 
	C289.000000,12.686641 289.000000,24.374662 289.000000,36.531342 
z"/>
<path fill="#FEFDFC" opacity="1.000000" stroke="none" 
	d="
M253.468658,288.000000 
	C253.207367,287.762268 253.379959,287.362946 253.627060,287.309784 
	C272.337219,283.282288 283.550842,271.600586 288.679565,253.179565 
	C289.000000,264.594299 289.000000,276.188599 289.000000,288.000000 
	C277.313324,288.000000 265.625336,288.000000 253.468658,288.000000 
z"/>
<path fill="#FEFDFC" opacity="1.000000" stroke="none" 
	d="
M36.531342,1.000000 
	C36.793125,1.237919 36.621075,1.637619 36.374420,1.690708 
	C17.661608,5.718329 6.449864,17.402847 1.322411,35.823509 
	C1.000000,24.405704 1.000000,12.811407 1.000000,1.000000 
	C12.686666,1.000000 24.374674,1.000000 36.531342,1.000000 
z"/>
<path fill="#FEFDFC" opacity="1.000000" stroke="none" 
	d="
M0.999999,253.468658 
	C1.629451,254.454514 2.387560,255.867859 2.868044,257.370026 
	C6.799500,269.660767 14.436502,278.675110 26.862431,284.324158 
	C30.310528,285.745605 33.155262,286.872803 36.000000,288.000000 
	C24.406744,288.000000 12.813488,288.000000 1.000000,288.000000 
	C1.000000,276.646729 1.000000,265.292023 0.999999,253.468658 
z"/>
<path fill="#E47C47" opacity="1.000000" stroke="none" 
	d="
M36.468658,288.000000 
	C33.155262,286.872803 30.310528,285.745605 27.218903,284.362701 
	C28.531561,283.408905 30.081957,282.130585 31.652132,282.105835 
	C42.807377,281.929810 53.966866,282.049103 65.124550,281.989441 
	C69.453346,281.966309 70.731926,283.507629 68.125214,287.674988 
	C57.645771,288.000000 47.291546,288.000000 36.468658,288.000000 
z"/>
<path fill="#D8814F" opacity="1.000000" stroke="none" 
	d="
M250.531342,1.000000 
	C248.901901,1.330906 246.804016,1.949388 244.705658,1.951009 
	C177.842957,2.002655 110.980225,1.998962 44.117508,1.971784 
	C42.313896,1.971051 40.510422,1.618867 38.353443,1.215287 
	C108.687561,1.000000 179.375122,1.000000 250.531342,1.000000 
z"/>
<path fill="#D97E54" opacity="1.000000" stroke="none" 
	d="
M289.000000,250.531342 
	C288.662201,248.904892 288.030731,246.809998 288.029236,244.714645 
	C287.981354,178.684036 287.989716,112.653404 288.023315,46.622784 
	C288.024323,44.653065 288.388245,42.683529 288.791504,40.356953 
	C289.000000,110.020897 289.000000,180.041794 289.000000,250.531342 
z"/>
<path fill="#D38354" opacity="1.000000" stroke="none" 
	d="
M1.000000,40.468658 
	C1.331032,41.930984 1.949627,43.861691 1.951480,45.792988 
	C2.015004,111.992584 2.024364,178.192230 2.008955,244.391876 
	C2.008574,246.027878 1.640763,247.663803 1.222160,249.649872 
	C1.000000,180.312439 1.000000,110.624878 1.000000,40.468658 
z"/>
<path fill="#FEFEFE" opacity="1.000000" stroke="none" 
	d="
M159.964432,111.015266 
	C160.004166,115.371063 160.043900,119.726860 159.918579,124.653595 
	C159.652222,125.515015 159.707718,125.773056 159.919983,125.998657 
	C159.964203,155.682938 160.008423,185.367233 159.655701,215.663879 
	C158.719055,217.073318 158.037598,217.809036 157.661774,218.677063 
	C154.354248,226.316330 148.238480,231.183777 139.938965,228.303909 
	C139.035370,227.990372 137.994873,228.071365 137.162766,227.664246 
	C139.465393,224.507553 142.188873,224.125046 145.636673,224.719193 
	C150.272461,225.518036 151.948090,223.533493 151.318909,220.521698 
	C145.405121,221.034912 139.686661,221.531189 133.613708,221.951233 
	C131.897659,219.580536 130.536087,217.286072 129.174515,214.991608 
	C129.124054,210.306580 129.073593,205.621567 129.442078,200.344849 
	C133.087738,195.690414 132.729889,186.786346 129.147324,181.994339 
	C129.099792,167.639954 129.052277,153.285568 129.395447,138.256042 
	C130.085327,130.991089 130.425888,124.402443 130.612717,117.809433 
	C130.629395,117.220467 129.648407,116.603226 129.130753,115.999115 
	C129.095184,107.310616 129.059616,98.622116 129.399872,89.285339 
	C130.468613,84.845161 131.651428,81.067192 131.759644,77.258675 
	C132.048340,67.099342 131.874985,56.926876 131.885300,46.759628 
	C132.456299,45.939434 133.027313,45.119244 134.242249,44.157219 
	C137.265335,42.750500 139.644516,41.485615 142.023697,40.220726 
	C143.401962,40.159279 144.780212,40.097832 146.656708,40.462273 
	C147.679840,41.705875 148.027191,42.986965 148.758118,43.267021 
	C153.982956,45.268929 156.856735,49.097439 158.160049,54.389938 
	C158.320007,55.039570 159.279541,55.492306 159.868530,56.036285 
	C159.954575,72.711517 160.040634,89.386742 159.770981,106.664055 
	C159.598343,108.515854 159.781387,109.765556 159.964432,111.015266 
z"/>
<path fill="#FEFDFB" opacity="1.000000" stroke="none" 
	d="
M241.340668,109.999657 
	C241.304230,126.148415 241.273224,141.797256 241.208923,157.445953 
	C241.183029,163.747726 238.124725,168.244156 232.565948,170.928574 
	C227.016800,173.608337 221.539490,173.050522 216.492477,169.554901 
	C212.214539,166.591980 210.147095,162.240234 210.134827,157.154388 
	C210.052826,123.191917 209.965714,89.228577 210.149307,55.266964 
	C210.198212,46.223202 217.200607,39.869282 225.899170,39.957958 
	C234.651779,40.047188 241.141785,46.291553 241.260040,55.561256 
	C241.489349,73.538116 241.330658,91.519928 241.340668,109.999657 
z"/>
<path fill="#FEFCFA" opacity="1.000000" stroke="none" 
	d="
M79.042236,79.000000 
	C79.042801,93.313828 79.066978,107.127701 79.036179,120.941460 
	C79.013268,131.216400 72.944115,138.008057 63.698532,138.204163 
	C54.394798,138.401505 47.770752,131.985596 47.675846,121.645981 
	C47.471222,99.353508 47.458843,77.052681 47.866234,54.764381 
	C48.032909,45.645649 55.175022,39.678509 63.954716,39.984234 
	C72.514725,40.282318 78.880653,47.009598 79.022491,56.032001 
	C79.108810,61.522903 79.040993,67.016235 79.042145,72.508476 
	C79.042564,74.505653 79.042229,76.502823 79.042236,79.000000 
z"/>
<path fill="#E67F3B" opacity="1.000000" stroke="none" 
	d="
M122.000595,192.911469 
	C122.905609,184.361267 123.810753,176.273712 124.739944,167.971237 
	C127.369858,170.668060 128.093384,195.969360 125.847267,202.357285 
	C121.211250,200.718246 122.244759,196.754684 122.000595,192.911469 
z"/>
<path fill="#E67F3E" opacity="1.000000" stroke="none" 
	d="
M122.499527,72.746002 
	C123.367203,67.196060 124.090439,62.067257 124.861198,56.601456 
	C128.918274,61.376129 127.468719,87.680244 122.355095,90.652512 
	C122.355095,84.465782 122.355095,78.816460 122.499527,72.746002 
z"/>
<path fill="#EB7B3B" opacity="1.000000" stroke="none" 
	d="
M205.992950,120.007385 
	C206.986267,121.457298 208.788223,122.879807 208.838440,124.361679 
	C209.113464,132.477142 209.050613,140.609116 208.877579,148.730621 
	C208.840942,150.449890 208.233398,152.417969 207.234818,153.798218 
	C205.483109,156.219543 204.284241,155.368958 204.343414,152.127533 
	C205.104218,149.727402 205.908417,147.865570 205.937897,145.991547 
	C206.074173,137.332016 205.994949,128.669098 205.992950,120.007385 
z"/>
<path fill="#EC7E3A" opacity="1.000000" stroke="none" 
	d="
M124.000839,119.142006 
	C124.186821,116.369202 124.372437,114.071564 124.558044,111.773926 
	C125.125854,111.816460 125.693657,111.858994 126.261467,111.901527 
	C126.261467,123.280563 126.261467,134.659607 126.261467,146.038635 
	C125.638725,146.067719 125.015984,146.096802 124.393242,146.125885 
	C123.542099,137.335434 124.206703,128.448624 124.000839,119.142006 
z"/>
<path fill="#EA7B3B" opacity="1.000000" stroke="none" 
	d="
M205.985535,63.012749 
	C206.980133,63.925331 208.816635,64.818138 208.838608,65.753555 
	C209.049072,74.714951 209.047195,83.685661 208.845505,92.647835 
	C208.814468,94.026825 207.459839,95.376030 206.360367,96.398209 
	C205.997437,85.042526 205.991486,74.027634 205.985535,63.012749 
z"/>
<path fill="#FEF6E7" opacity="1.000000" stroke="none" 
	d="
M131.582214,46.981369 
	C131.874985,56.926876 132.048340,67.099342 131.759644,77.258675 
	C131.651428,81.067192 130.468613,84.845161 129.476730,88.822769 
	C129.113724,77.236259 128.933350,65.462486 129.090744,53.693233 
	C129.119781,51.520493 130.514648,49.366016 131.582214,46.981369 
z"/>
<path fill="#FEF6E7" opacity="1.000000" stroke="none" 
	d="
M137.017868,227.969360 
	C137.994873,228.071365 139.035370,227.990372 139.938965,228.303909 
	C148.238480,231.183777 154.354248,226.316330 157.661774,218.677063 
	C158.037598,217.809036 158.719055,217.073318 159.557480,216.121460 
	C159.602066,228.855911 147.955475,235.145187 136.069977,228.518768 
	C136.500153,228.078873 136.759003,228.024124 137.017868,227.969360 
z"/>
<path fill="#EA7A42" opacity="1.000000" stroke="none" 
	d="
M45.995422,56.142357 
	C45.996296,63.891842 45.996296,71.164146 45.996296,78.436447 
	C45.496998,78.451584 44.997704,78.466713 44.498405,78.481850 
	C44.026192,68.315765 43.553978,58.149677 43.065174,47.626495 
	C47.448734,49.257328 45.443462,52.939686 45.995422,56.142357 
z"/>
<path fill="#E57C4C" opacity="1.000000" stroke="none" 
	d="
M205.662170,63.214653 
	C205.991486,74.027634 205.997437,85.042526 206.006271,96.525375 
	C205.357193,96.299728 204.146027,95.612808 204.137634,94.911484 
	C204.022278,85.281303 204.040558,75.648819 204.136963,66.018013 
	C204.145676,65.146935 204.920013,64.283524 205.662170,63.214653 
z"/>
<path fill="#FEFDF7" opacity="1.000000" stroke="none" 
	d="
M137.162766,227.664246 
	C136.759003,228.024124 136.500153,228.078873 135.855576,228.226990 
	C135.469849,228.320374 135.163742,228.289032 135.068970,227.779999 
	C134.638870,225.523132 134.303543,223.775299 133.968201,222.027466 
	C139.686661,221.531189 145.405121,221.034912 151.318909,220.521698 
	C151.948090,223.533493 150.272461,225.518036 145.636673,224.719193 
	C142.188873,224.125046 139.465393,224.507553 137.162766,227.664246 
z"/>
<path fill="#E47C4B" opacity="1.000000" stroke="none" 
	d="
M205.668594,120.209358 
	C205.994949,128.669098 206.074173,137.332016 205.937897,145.991547 
	C205.908417,147.865570 205.104218,149.727402 204.331375,151.796463 
	C204.005814,143.337143 203.928757,134.675003 204.066467,126.016266 
	C204.096283,124.141655 204.898041,122.279320 205.668594,120.209358 
z"/>
<path fill="#FEF6E7" opacity="1.000000" stroke="none" 
	d="
M159.947937,55.626026 
	C159.279541,55.492306 158.320007,55.039570 158.160049,54.389938 
	C156.856735,49.097439 153.982956,45.268929 148.758118,43.267021 
	C148.027191,42.986965 147.679840,41.705875 147.061279,40.560593 
	C155.304825,41.715794 159.405487,46.420269 159.947937,55.626026 
z"/>
<path fill="#FEF6E7" opacity="1.000000" stroke="none" 
	d="
M129.043427,182.452209 
	C132.729889,186.786346 133.087738,195.690414 129.519302,199.885468 
	C129.098236,194.315201 129.018875,188.612640 129.043427,182.452209 
z"/>
<path fill="#FEF6E7" opacity="1.000000" stroke="none" 
	d="
M129.018753,116.455704 
	C129.648407,116.603226 130.629395,117.220467 130.612717,117.809433 
	C130.425888,124.402443 130.085327,130.991089 129.476624,137.793991 
	C129.080322,130.975479 128.993546,123.943886 129.018753,116.455704 
z"/>
<path fill="#FEF6E7" opacity="1.000000" stroke="none" 
	d="
M133.613708,221.951233 
	C134.303543,223.775299 134.638870,225.523132 134.977417,227.656372 
	C130.559448,225.149933 128.929077,220.889664 129.077484,215.398209 
	C130.536087,217.286072 131.897659,219.580536 133.613708,221.951233 
z"/>
<path fill="#FEF6E7" opacity="1.000000" stroke="none" 
	d="
M141.663452,40.191597 
	C139.644516,41.485615 137.265335,42.750500 134.514679,44.021252 
	C136.529861,42.738899 138.916534,41.450684 141.663452,40.191597 
z"/>
<path fill="#FEF6E7" opacity="1.000000" stroke="none" 
	d="
M160.074188,110.620766 
	C159.781387,109.765556 159.598343,108.515854 159.688873,107.125595 
	C160.036285,108.065460 160.110107,109.145859 160.074188,110.620766 
z"/>
<path fill="#FEF6E7" opacity="1.000000" stroke="none" 
	d="
M159.992493,125.749496 
	C159.707718,125.773056 159.652222,125.515015 159.839661,125.112434 
	C159.972229,125.167007 160.018616,125.333664 159.992493,125.749496 
z"/>
</svg>